<?xml version="1.0" standalone="no"?>
<!DOCTYPE svg PUBLIC "-//W3C//DTD SVG 1.1//EN"
  "http://www.w3.org/Graphics/SVG/1.1/DTD/svg11.dtd">
<svg width="161.63999938964844mm" height="131.13999938964844mm" viewBox="-80.81999969482422 -65.56999969482422 161.63999938964844 131.13999938964844" xmlns="http://www.w3.org/2000/svg" version="1.1">
	<title>svgOutput</title>
	<desc>made with tinkercad</desc>
<path d="M 62.430999755859375 62.68000030517578 L 62 63.20905303955078 L 61.84199905395508 63.40299987792969 L 61.439998626708984 63.71682357788086 L 61.108001708984375 63.97600173950195 L 60.263999938964844 64.37200164794922 L 59.391998291015625 64.56172943115234 L 59.354000091552734 64.56999969482422 L 58.422000885009766 64.55999755859375 L 58 64.45892333984375 L 57.51599884033203 64.34300231933594 L 57.34400177001953 64.25792694091797 L 56.680999755859375 63.93000030517578 L 49.152000427246094 59.53575134277344 L 49 59.44703674316406 L 45 57.112464904785156 L 43 55.9451789855957 L 40 54.19424819946289 L 32.768001556396484 49.97334289550781 L 31.360733032226562 49.152000427246094 L 30 48.357818603515625 L 27 46.60688781738281 L 24 44.855960845947266 L 17.324758529663086 40.959999084472656 L 16.384000778198242 40.41093444824219 L 16.33099937438965 40.380001068115234 L 15 39.67521667480469 L 14.586000442504883 39.45600128173828 L 12.696999549865723 38.88199996948242 L 11 38.709190368652344 L 10.732999801635742 38.68199920654297 L 5 38.68156814575195 L 4 38.68149185180664 L 2 38.68134307861328 L 0 38.681190490722656 L -4 38.68088912963867 L -8 38.68058776855469 L -9 38.68051528930664 L -14 38.680137634277344 L -15.819999694824219 38.68000030517578 L -17 38.74919128417969 L -18.634000778198242 38.845001220703125 L -21.40999984741211 39.334999084472656 L -23 39.8120002746582 L -24.110000610351562 40.14500045776367 L -27 41.261531829833984 L -32.768001556396484 43.48995590209961 L -33 43.57958984375 L -36.22100067138672 44.82400131225586 L -39.16999816894531 45.4370002746582 L -42 45.787200927734375 L -42.15999984741211 45.80699920654297 L -45.16999816894531 45.93000030517578 L -46 45.93000030517578 L -49.152000427246094 45.93000030517578 L -53 45.93000030517578 L -55 45.93000030517578 L -61 45.93000030517578 L -65.53600311279297 45.93000030517578 L -66 45.93000030517578 L -74 45.93000030517578 L -75.81999969482422 45.93000030517578 L -76.70999908447266 45.83000183105469 L -77.55500030517578 45.534000396728516 L -78.31400299072266 45.05799865722656 L -78.9469985961914 44.42399978637695 L -79.42400360107422 43.66600036621094 L -79.71900177001953 42.81999969482422 L -79.81999969482422 41.93000030517578 L -79.81999969482422 40.959999084472656 L -79.81999969482422 32.768001556396484 L -79.81999969482422 1.1102230246251565e-16 L -79.81999969482422 -32.768001556396484 L -79.81999969482422 -49.152000427246094 L -79.81999969482422 -50.06999969482422 L -79.73300170898438 -50.89899826049805 L -79.47599792480469 -51.69200134277344 L -79.05999755859375 -52.415000915527344 L -78.50399780273438 -53.0359992980957 L -77.83000183105469 -53.52799987792969 L -77.06999969482422 -53.869998931884766 L -74 -54.448753356933594 L -66 -55.956905364990234 L -65.53600311279297 -56.044376373291016 L -58.64214324951172 -57.34400177001953 L -57.34400177001953 -57.58872604370117 L -53 -58.407649993896484 L -49.152000427246094 -59.13307189941406 L -46 -59.7272834777832 L -40.959999084472656 -60.67741775512695 L -36 -61.61247253417969 L -33 -62.17802810668945 L -32.768001556396484 -62.22176742553711 L -27 -63.30914306640625 L -24.576000213623047 -63.76611328125 L -21.988000869750977 -64.25399780273438 L -20.488000869750977 -64.42900085449219 L -20.479999542236328 -64.4295654296875 L -18.979999542236328 -64.53500366210938 L -17.469999313354492 -64.56999969482422 L -16.384000778198242 -64.56999969482422 L -14 -64.56999969482422 L -9 -64.56999969482422 L -8 -64.56999969482422 L 4 -64.56999969482422 L 5 -64.56999969482422 L 11 -64.56999969482422 L 24 -64.56999969482422 L 27 -64.56999969482422 L 30 -64.56999969482422 L 34 -64.56999969482422 L 34.000999450683594 -64.56999969482422 L 43 -64.56999969482422 L 49 -64.56999969482422 L 52.000999450683594 -64.56999969482422 L 62 -64.56999969482422 L 67 -64.56999969482422 L 67.93099975585938 -64.56999969482422 L 68.65399932861328 -64.48799896240234 L 69.34100341796875 -64.24800109863281 L 69.63200378417969 -64.06517791748047 L 69.95700073242188 -63.861000061035156 L 70.00199890136719 -63.816001892089844 L 70.47200012207031 -63.34600067138672 L 70.85900115966797 -62.72999954223633 L 71 -62.32638931274414 L 71.0989990234375 -62.042999267578125 L 71.18099975585938 -61.31999969482422 L 71.18099975585938 -57.34400177001953 L 71.18099975585938 -53.24800109863281 L 71.18099975585938 -49.152000427246094 L 71.18099975585938 -45.055999755859375 L 71.18099975585938 -40.959999084472656 L 71.18099975585938 -36.86399841308594 L 71.18099975585938 -32.768001556396484 L 71.18099975585938 -28.672000885009766 L 71.18099975585938 -24.576000213623047 L 71.18099975585938 -16.384000778198242 L 71.18099975585938 1.1102230246251565e-16 L 71.18099975585938 16.384000778198242 L 71.18099975585938 19.93000030517578 L 71.3219985961914 21.325000762939453 L 71.74099731445312 22.663000106811523 L 72.41899871826172 23.889999389648438 L 73.00525665283203 24.576000213623047 L 73.33000183105469 24.95599937438965 L 73.72799682617188 25.191633224487305 L 75 25.94471549987793 L 77.93099975585938 27.68000030517578 L 78.65299987792969 28.268999099731445 L 79.22699737548828 29.003000259399414 L 79.62200164794922 29.847000122070312 L 79.81999969482422 30.756999969482422 L 79.80999755859375 31.68899917602539 L 79.59400177001953 32.595001220703125 L 79.50843048095703 32.768001556396484 L 79.18099975585938 33.43000030517578 L 75 40.73114776611328 L 74.86894989013672 40.959999084472656 L 73.72799682617188 42.9524040222168 L 72.52337646484375 45.055999755859375 L 71 47.716224670410156 L 70.17780303955078 49.152000427246094 L 70.00199890136719 49.45899963378906 L 69 51.20875930786133 L 67 54.701297760009766 L 65.53600311279297 57.257835388183594 L 65.48665618896484 57.34400177001953 L 65 58.1938362121582 L 62.430999755859375 62.68000030517578 M -2.359999895095825 -48.933998107910156 L -2.4189999103546143 -48.5629997253418 L -2.359999895095825 -48.191001892089844 L -2.188999891281128 -47.85599899291992 L -1.9229999780654907 -47.59000015258789 L -1.5880000591278076 -47.41899871826172 L -1.215999960899353 -47.36000061035156 L -0.8450000286102295 -47.41899871826172 L -0.5099999904632568 -47.59000015258789 L -0.24300000071525574 -47.85599899291992 L -0.0729999989271164 -48.191001892089844 L -0.014000000432133675 -48.5629997253418 L -0.0729999989271164 -48.933998107910156 L -0.18329761922359467 -49.152000427246094 L -0.24300000071525574 -49.27000045776367 L -0.5099999904632568 -49.5359992980957 L -0.8450000286102295 -49.707000732421875 L -1.215999960899353 -49.76499938964844 L -1.5880000591278076 -49.707000732421875 L -1.9229999780654907 -49.5359992980957 L -2.188999891281128 -49.27000045776367 L -2.249053478240967 -49.152000427246094 L -2.359999895095825 -48.933998107910156 M -57.47200012207031 37.84400177001953 L -57.34400177001953 37.715999603271484 L -57.20600128173828 37.577999114990234 L -57.03499984741211 37.24300003051758 L -56.97700119018555 36.87099838256836 L -56.978092193603516 36.86399841308594 L -57.03499984741211 36.499000549316406 L -57.20600128173828 36.16400146484375 L -57.34400177001953 36.0260009765625 L -57.47200012207031 35.89799880981445 L -57.80699920654297 35.72700119018555 L -58.17900085449219 35.667999267578125 L -58.55099868774414 35.72700119018555 L -58.88600158691406 35.89799880981445 L -59.152000427246094 36.16400146484375 L -59.323001861572266 36.499000549316406 L -59.380889892578125 36.86399841308594 L -59.38199996948242 36.87099838256836 L -59.323001861572266 37.24300003051758 L -59.152000427246094 37.577999114990234 L -58.88600158691406 37.84400177001953 L -58.55099868774414 38.01499938964844 L -58.17900085449219 38.073001861572266 L -57.80699920654297 38.01499938964844 L -57.47200012207031 37.84400177001953 M -58.79800033569336 -39.42900085449219 L -58.426998138427734 -39.369998931884766 L -58.05500030517578 -39.42900085449219 L -57.720001220703125 -39.599998474121094 L -57.45399856567383 -39.86600112915039 L -57.34400177001953 -40.08149719238281 L -57.28300094604492 -40.20100021362305 L -57.2239990234375 -40.571998596191406 L -57.28300094604492 -40.944000244140625 L -57.291168212890625 -40.959999084472656 L -57.34400177001953 -41.06350326538086 L -57.45399856567383 -41.27899932861328 L -57.720001220703125 -41.54499816894531 L -58.05500030517578 -41.715999603271484 L -58.426998138427734 -41.775001525878906 L -58.79800033569336 -41.715999603271484 L -59.132999420166016 -41.54499816894531 L -59.39899826049805 -41.27899932861328 L -59.561832427978516 -40.959999084472656 L -59.56999969482422 -40.944000244140625 L -59.62900161743164 -40.571998596191406 L -59.56999969482422 -40.20100021362305 L -59.39899826049805 -39.86600112915039 L -59.132999420166016 -39.599998474121094 L -58.79800033569336 -39.42900085449219 M -59.52455520629883 -2.0480000972747803 L -59.571998596191406 -1.746999979019165 L -59.51100158691406 -1.3600000143051147 L -59.33300018310547 -1.0110000371932983 L -59.055999755859375 -0.7340000271797179 L -58.707000732421875 -0.555999994277954 L -58.31999969482422 -0.49399998784065235 L -57.93299865722656 -0.555999994277954 L -57.58399963378906 -0.7340000271797179 L -57.30699920654297 -1.0110000371932983 L -57.12900161743164 -1.3600000143051147 L -57.06700134277344 -1.746999979019165 L -57.1152229309082 -2.0480000972747803 L -57.12900161743164 -2.134000062942505 L -57.30699920654297 -2.4830000400543213 L -57.58399963378906 -2.759999990463257 L -57.93299865722656 -2.937999963760376 L -58.31999969482422 -2.999000072479248 L -58.707000732421875 -2.937999963760376 L -59.055999755859375 -2.759999990463257 L -59.33300018310547 -2.4830000400543213 L -59.51100158691406 -2.134000062942505 L -59.52455520629883 -2.0480000972747803 M 19.089000701904297 -22.82200050354004 L 19.150999069213867 -23.208999633789062 L 19.089000701904297 -23.59600067138672 L 18.910999298095703 -23.94499969482422 L 18.634000778198242 -24.222000122070312 L 18.28499984741211 -24.399999618530273 L 17.898000717163086 -24.461999893188477 L 17.51099967956543 -24.399999618530273 L 17.16200065612793 -24.222000122070312 L 16.885000228881836 -23.94499969482422 L 16.707000732421875 -23.59600067138672 L 16.645999908447266 -23.208999633789062 L 16.707000732421875 -22.82200050354004 L 16.856948852539062 -22.527999877929688 L 16.885000228881836 -22.472999572753906 L 17.16200065612793 -22.195999145507812 L 17.51099967956543 -22.01799964904785 L 17.898000717163086 -21.957000732421875 L 18.28499984741211 -22.01799964904785 L 18.634000778198242 -22.195999145507812 L 18.910999298095703 -22.472999572753906 L 18.939050674438477 -22.527999877929688 L 19.089000701904297 -22.82200050354004 M 32.67300033569336 20.5049991607666 L 32.768001556396484 20.600357055664062 L 32.93899917602539 20.77199935913086 L 33.27399826049805 20.941999435424805 L 33.645999908447266 21.000999450683594 L 34 20.944704055786133 L 34.016998291015625 20.941999435424805 L 34.35300064086914 20.77199935913086 L 34.61899948120117 20.5049991607666 L 34.63168716430664 20.479999542236328 L 34.78900146484375 20.170000076293945 L 34.847999572753906 19.798999786376953 L 34.78900146484375 19.427000045776367 L 34.61899948120117 19.091999053955078 L 34.35300064086914 18.826000213623047 L 34.016998291015625 18.655000686645508 L 34 18.65229606628418 L 33.645999908447266 18.59600067138672 L 33.27399826049805 18.655000686645508 L 32.93899917602539 18.826000213623047 L 32.768001556396484 18.996999740600586 L 32.67300033569336 19.091999053955078 L 32.50199890136719 19.427000045776367 L 32.44300079345703 19.798999786376953 L 32.50199890136719 20.170000076293945 L 32.660240173339844 20.479999542236328 L 32.67300033569336 20.5049991607666 M -19.04800033569336 27.4060001373291 L -18.98699951171875 27.018999099731445 L -18.989994049072266 27 L -19.04800033569336 26.631999969482422 L -19.052080154418945 26.624000549316406 L -19.22599983215332 26.283000946044922 L -19.503000259399414 26.006000518798828 L -19.851999282836914 25.827999114990234 L -20.23900032043457 25.766000747680664 L -20.625999450683594 25.827999114990234 L -20.975000381469727 26.006000518798828 L -21.25200080871582 26.283000946044922 L -21.425920486450195 26.624000549316406 L -21.43000030517578 26.631999969482422 L -21.464000701904297 26.84422492980957 L -21.488956451416016 27 L -21.492000579833984 27.018999099731445 L -21.43000030517578 27.4060001373291 L -21.25200080871582 27.7549991607666 L -20.975000381469727 28.031999588012695 L -20.625999450683594 28.209999084472656 L -20.23900032043457 28.270999908447266 L -19.851999282836914 28.209999084472656 L -19.503000259399414 28.031999588012695 L -19.22599983215332 27.7549991607666 L -19.04800033569336 27.4060001373291 M -20.597999572753906 -9.5649995803833 L -20.211000442504883 -9.503999710083008 L -19.823999404907227 -9.5649995803833 L -19.475000381469727 -9.743000030517578 L -19.197999954223633 -10.020000457763672 L -19.08579444885254 -10.239999771118164 L -19.020000457763672 -10.369000434875488 L -18.958999633789062 -10.755999565124512 L -19.020000457763672 -11.144000053405762 L -19.197999954223633 -11.493000030517578 L -19.475000381469727 -11.770000457763672 L -19.823999404907227 -11.947999954223633 L -20.211000442504883 -12.008999824523926 L -20.597999572753906 -11.947999954223633 L -20.94700050354004 -11.770000457763672 L -21.224000930786133 -11.493000030517578 L -21.402000427246094 -11.144000053405762 L -21.464000701904297 -10.755999565124512 L -21.402000427246094 -10.369000434875488 L -21.336206436157227 -10.239999771118164 L -21.224000930786133 -10.020000457763672 L -20.94700050354004 -9.743000030517578 L -20.597999572753906 -9.5649995803833 M 59.391998291015625 62.40584945678711 L 59.441001892089844 62.39799880981445 L 59.790000915527344 62.220001220703125 L 59.95500183105469 62.05500030517578 L 60.06700134277344 61.94300079345703 L 60.10227584838867 61.87383270263672 L 60.16299819946289 61.75477600097656 L 60.244998931884766 61.59400177001953 L 60.26967239379883 61.439998626708984 L 60.30699920654297 61.207000732421875 L 60.244998931884766 60.81999969482422 L 60.16299819946289 60.65922546386719 L 60.11845397949219 60.57188415527344 L 60.06700134277344 60.47100067138672 L 59.790000915527344 60.194000244140625 L 59.441001892089844 60.01599884033203 L 59.05400085449219 59.95500183105469 L 58.66699981689453 60.01599884033203 L 58.31800079345703 60.194000244140625 L 58.04100036621094 60.47100067138672 L 58 60.551387786865234 L 57.862998962402344 60.81999969482422 L 57.80813217163086 61.1680908203125 L 57.801998138427734 61.207000732421875 L 57.83872604370117 61.439998626708984 L 57.862998962402344 61.59400177001953 L 58 61.862613677978516 L 58.04100036621094 61.94300079345703 L 58.15299987792969 62.05500030517578 L 58.31800079345703 62.220001220703125 L 58.66699981689453 62.39799880981445 L 59.05400085449219 62.459999084472656 L 59.391998291015625 62.40584945678711 M -19.641000747680664 -50.03499984741211 L -20.027999877929688 -50.09700012207031 L -20.415000915527344 -50.03499984741211 L -20.763999938964844 -49.856998443603516 L -21.041000366210938 -49.58000183105469 L -21.2189998626709 -49.23099899291992 L -21.23145294189453 -49.152000427246094 L -21.280000686645508 -48.84400177001953 L -21.2189998626709 -48.457000732421875 L -21.041000366210938 -48.108001708984375 L -20.763999938964844 -47.83100128173828 L -20.415000915527344 -47.65299987792969 L -20.027999877929688 -47.59199905395508 L -19.641000747680664 -47.65299987792969 L -19.291000366210938 -47.83100128173828 L -19.013999938964844 -48.108001708984375 L -18.836000442504883 -48.457000732421875 L -18.774999618530273 -48.84400177001953 L -18.82354736328125 -49.152000427246094 L -18.836000442504883 -49.23099899291992 L -19.013999938964844 -49.58000183105469 L -19.291000366210938 -49.856998443603516 L -19.641000747680664 -50.03499984741211 M -0.061234958469867706 28.672000885009766 L 0 28.551939010620117 L 0.027000000700354576 28.499000549316406 L 0.08799999952316284 28.11199951171875 L 0.027000000700354576 27.725000381469727 L 0 27.672061920166016 L -0.1509999930858612 27.375999450683594 L -0.42800000309944153 27.099000930786133 L -0.7770000100135803 26.92099952697754 L -1.1649999618530273 26.860000610351562 L -1.5520000457763672 26.92099952697754 L -1.9010000228881836 27.099000930786133 L -2.177999973297119 27.375999450683594 L -2.3559999465942383 27.725000381469727 L -2.4170000553131104 28.11199951171875 L -2.3559999465942383 28.499000549316406 L -2.2677650451660156 28.672000885009766 L -2.177999973297119 28.847999572753906 L -1.9010000228881836 29.125 L -1.5520000457763672 29.30299949645996 L -1.1649999618530273 29.364999771118164 L -0.7770000100135803 29.30299949645996 L -0.42800000309944153 29.125 L -0.1509999930858612 28.847999572753906 L -0.061234958469867706 28.672000885009766 M 66.16100311279297 20.121000289916992 L 66.10456085205078 20.479999542236328 L 66.0999984741211 20.509000778198242 L 66.16100311279297 20.895999908447266 L 66.33899688720703 21.2450008392334 L 66.61599731445312 21.52199935913086 L 66.96499633789062 21.700000762939453 L 67 21.705516815185547 L 67.35199737548828 21.76099967956543 L 67.73899841308594 21.700000762939453 L 68.08899688720703 21.52199935913086 L 68.36599731445312 21.2450008392334 L 68.54399871826172 20.895999908447266 L 68.6050033569336 20.509000778198242 L 68.6004409790039 20.479999542236328 L 68.54399871826172 20.121000289916992 L 68.36599731445312 19.77199935913086 L 68.08899688720703 19.4950008392334 L 67.73899841308594 19.316999435424805 L 67.35199737548828 19.256000518798828 L 67 19.31148338317871 L 66.96499633789062 19.316999435424805 L 66.61599731445312 19.4950008392334 L 66.33899688720703 19.77199935913086 L 66.16100311279297 20.121000289916992 M -0.7609999775886536 -11.230999946594238 L -1.1319999694824219 -11.289999961853027 L -1.503999948501587 -11.230999946594238 L -1.8389999866485596 -11.0600004196167 L -2.1050000190734863 -10.793999671936035 L -2.2760000228881836 -10.458999633789062 L -2.3108274936676025 -10.239999771118164 L -2.3350000381469727 -10.088000297546387 L -2.2760000228881836 -9.715999603271484 L -2.1050000190734863 -9.380999565124512 L -1.8389999866485596 -9.114999771118164 L -1.503999948501587 -8.944000244140625 L -1.1319999694824219 -8.885000228881836 L -0.7609999775886536 -8.944000244140625 L -0.42500001192092896 -9.114999771118164 L -0.1589999943971634 -9.380999565124512 L 0 -9.694323539733887 L 0.010999999940395355 -9.715999603271484 L 0.07000000029802322 -10.088000297546387 L 0.04582749307155609 -10.239999771118164 L 0.010999999940395355 -10.458999633789062 L 0 -10.480676651000977 L -0.1589999943971634 -10.793999671936035 L -0.42500001192092896 -11.0600004196167 L -0.7609999775886536 -11.230999946594238 z" fill="none" stroke="rgb(255,0,0)" stroke-width="0.001mm" />
</svg>